<svg width="185" height="176" viewBox="0 0 185 176" fill="none" xmlns="http://www.w3.org/2000/svg">
<g id="trashcan-lid" filter="url(#filter0_d_2_34)">
<path id="Vector" d="M11.9458 98.4979L11.9776 98.9667L12.4474 98.9641L173.878 98.0873L174.41 98.0844L174.374 97.5534L172.992 77.1637L172.96 76.695L172.49 76.6975L11.0597 77.5732L10.5276 77.5761L10.5636 78.107L11.9458 98.4979ZM173.227 76.3655L174.722 98.4102L174.608 98.4109L11.7102 99.2956L10.2158 77.2508L10.3295 77.2501L10.3296 77.2501L173.227 76.3655Z" fill="#3F3D56" stroke="black"/>
<path id="Path 10" d="M92.171 35.4124C87.4201 35.435 82.8631 36.8577 79.0406 39.5117C75.218 42.1657 72.2906 45.9395 70.6055 50.3854C68.9205 54.8313 68.5486 59.7626 69.534 64.5941C70.5195 69.4256 72.8208 73.9544 76.165 77.6432L83.9549 77.601C80.3384 75.1901 77.4968 71.7028 75.8462 67.6496C74.1957 63.5965 73.8228 59.1905 74.7822 55.0767C75.7415 50.9629 77.9828 47.3575 81.1778 44.7884C84.3728 42.2193 88.3536 40.8214 92.5375 40.7994C96.7213 40.7774 100.888 42.1325 104.428 44.6663C107.969 47.2 110.696 50.7794 112.211 54.8801C113.726 58.9809 113.949 63.3877 112.847 67.4553C111.746 71.5229 109.378 75.0376 106.09 77.4847L113.88 77.4425C116.723 73.7212 118.41 69.1714 118.742 64.333C119.074 59.4945 118.035 54.5706 115.75 50.1455C113.466 45.7204 110.03 41.9799 105.851 39.3678C101.673 36.7558 96.9263 35.3818 92.1757 35.4091L92.171 35.4124Z" fill="#3F3D56"/>
</g>
<defs>
<filter id="filter0_d_2_34" x="5.68094" y="35.4087" width="173.576" height="72.3894" filterUnits="userSpaceOnUse" color-interpolation-filters="sRGB">
<feFlood flood-opacity="0" result="BackgroundImageFix"/>
<feColorMatrix in="SourceAlpha" type="matrix" values="0 0 0 0 0 0 0 0 0 0 0 0 0 0 0 0 0 0 127 0" result="hardAlpha"/>
<feOffset dy="4"/>
<feGaussianBlur stdDeviation="2"/>
<feComposite in2="hardAlpha" operator="out"/>
<feColorMatrix type="matrix" values="0 0 0 0 0 0 0 0 0 0 0 0 0 0 0 0 0 0 0.25 0"/>
<feBlend mode="normal" in2="BackgroundImageFix" result="effect1_dropShadow_2_34"/>
<feBlend mode="normal" in="SourceGraphic" in2="effect1_dropShadow_2_34" result="shape"/>
</filter>
</defs>
</svg>
